<svg xmlns="http://www.w3.org/2000/svg" width="64" height="256" shape-rendering="crispEdges">
<rect x="0" y="0" width="8" height="8" fill="#0a0b24"/>
<rect x="8" y="0" width="8" height="8" fill="#050618"/>
<rect x="16" y="0" width="8" height="8" fill="#050618"/>
<rect x="24" y="0" width="8" height="8" fill="#050618"/>
<rect x="32" y="0" width="8" height="8" fill="#0a0b24"/>
<rect x="40" y="0" width="8" height="8" fill="#050618"/>
<rect x="48" y="0" width="8" height="8" fill="#050618"/>
<rect x="56" y="0" width="8" height="8" fill="#050618"/>
<rect x="0" y="8" width="8" height="8" fill="#050618"/>
<rect x="8" y="8" width="8" height="8" fill="#050618"/>
<rect x="16" y="8" width="8" height="8" fill="#050618"/>
<rect x="24" y="8" width="8" height="8" fill="#050618"/>
<rect x="32" y="8" width="8" height="8" fill="#050618"/>
<rect x="40" y="8" width="8" height="8" fill="#050618"/>
<rect x="48" y="8" width="8" height="8" fill="#050618"/>
<rect x="56" y="8" width="8" height="8" fill="#050618"/>
<rect x="0" y="16" width="8" height="8" fill="#050618"/>
<rect x="8" y="16" width="8" height="8" fill="#050618"/>
<rect x="16" y="16" width="8" height="8" fill="#0a0b24"/>
<rect x="24" y="16" width="8" height="8" fill="#050618"/>
<rect x="32" y="16" width="8" height="8" fill="#050618"/>
<rect x="40" y="16" width="8" height="8" fill="#050618"/>
<rect x="48" y="16" width="8" height="8" fill="#0a0b24"/>
<rect x="56" y="16" width="8" height="8" fill="#050618"/>
<rect x="0" y="24" width="8" height="8" fill="#050618"/>
<rect x="8" y="24" width="8" height="8" fill="#050618"/>
<rect x="16" y="24" width="8" height="8" fill="#050618"/>
<rect x="24" y="24" width="8" height="8" fill="#050618"/>
<rect x="32" y="24" width="8" height="8" fill="#050618"/>
<rect x="40" y="24" width="8" height="8" fill="#050618"/>
<rect x="48" y="24" width="8" height="8" fill="#050618"/>
<rect x="56" y="24" width="8" height="8" fill="#050618"/>
<rect x="0" y="32" width="8" height="8" fill="#0a0b24"/>
<rect x="8" y="32" width="8" height="8" fill="#050618"/>
<rect x="16" y="32" width="8" height="8" fill="#0a0b24"/>
<rect x="24" y="32" width="8" height="8" fill="#050618"/>
<rect x="32" y="32" width="8" height="8" fill="#0a0b24"/>
<rect x="40" y="32" width="8" height="8" fill="#050618"/>
<rect x="48" y="32" width="8" height="8" fill="#0a0b24"/>
<rect x="56" y="32" width="8" height="8" fill="#050618"/>
<rect x="0" y="40" width="8" height="8" fill="#050618"/>
<rect x="8" y="40" width="8" height="8" fill="#0a0b24"/>
<rect x="16" y="40" width="8" height="8" fill="#050618"/>
<rect x="24" y="40" width="8" height="8" fill="#050618"/>
<rect x="32" y="40" width="8" height="8" fill="#050618"/>
<rect x="40" y="40" width="8" height="8" fill="#0a0b24"/>
<rect x="48" y="40" width="8" height="8" fill="#050618"/>
<rect x="56" y="40" width="8" height="8" fill="#050618"/>
<rect x="0" y="48" width="8" height="8" fill="#0a0b24"/>
<rect x="8" y="48" width="8" height="8" fill="#050618"/>
<rect x="16" y="48" width="8" height="8" fill="#0a0b24"/>
<rect x="24" y="48" width="8" height="8" fill="#050618"/>
<rect x="32" y="48" width="8" height="8" fill="#0a0b24"/>
<rect x="40" y="48" width="8" height="8" fill="#050618"/>
<rect x="48" y="48" width="8" height="8" fill="#0a0b24"/>
<rect x="56" y="48" width="8" height="8" fill="#050618"/>
<rect x="0" y="56" width="8" height="8" fill="#050618"/>
<rect x="8" y="56" width="8" height="8" fill="#050618"/>
<rect x="16" y="56" width="8" height="8" fill="#050618"/>
<rect x="24" y="56" width="8" height="8" fill="#0a0b24"/>
<rect x="32" y="56" width="8" height="8" fill="#050618"/>
<rect x="40" y="56" width="8" height="8" fill="#050618"/>
<rect x="48" y="56" width="8" height="8" fill="#050618"/>
<rect x="56" y="56" width="8" height="8" fill="#0a0b24"/>
<rect x="0" y="64" width="8" height="8" fill="#0a0b24"/>
<rect x="8" y="64" width="8" height="8" fill="#050618"/>
<rect x="16" y="64" width="8" height="8" fill="#0a0b24"/>
<rect x="24" y="64" width="8" height="8" fill="#050618"/>
<rect x="32" y="64" width="8" height="8" fill="#0a0b24"/>
<rect x="40" y="64" width="8" height="8" fill="#050618"/>
<rect x="48" y="64" width="8" height="8" fill="#0a0b24"/>
<rect x="56" y="64" width="8" height="8" fill="#050618"/>
<rect x="0" y="72" width="8" height="8" fill="#050618"/>
<rect x="8" y="72" width="8" height="8" fill="#0a0b24"/>
<rect x="16" y="72" width="8" height="8" fill="#050618"/>
<rect x="24" y="72" width="8" height="8" fill="#0a0b24"/>
<rect x="32" y="72" width="8" height="8" fill="#050618"/>
<rect x="40" y="72" width="8" height="8" fill="#0a0b24"/>
<rect x="48" y="72" width="8" height="8" fill="#050618"/>
<rect x="56" y="72" width="8" height="8" fill="#0a0b24"/>
<rect x="0" y="80" width="8" height="8" fill="#0a0b24"/>
<rect x="8" y="80" width="8" height="8" fill="#050618"/>
<rect x="16" y="80" width="8" height="8" fill="#0a0b24"/>
<rect x="24" y="80" width="8" height="8" fill="#0a0b24"/>
<rect x="32" y="80" width="8" height="8" fill="#0a0b24"/>
<rect x="40" y="80" width="8" height="8" fill="#050618"/>
<rect x="48" y="80" width="8" height="8" fill="#0a0b24"/>
<rect x="56" y="80" width="8" height="8" fill="#0a0b24"/>
<rect x="0" y="88" width="8" height="8" fill="#050618"/>
<rect x="8" y="88" width="8" height="8" fill="#0a0b24"/>
<rect x="16" y="88" width="8" height="8" fill="#050618"/>
<rect x="24" y="88" width="8" height="8" fill="#0a0b24"/>
<rect x="32" y="88" width="8" height="8" fill="#050618"/>
<rect x="40" y="88" width="8" height="8" fill="#0a0b24"/>
<rect x="48" y="88" width="8" height="8" fill="#050618"/>
<rect x="56" y="88" width="8" height="8" fill="#0a0b24"/>
<rect x="0" y="96" width="8" height="8" fill="#0a0b24"/>
<rect x="8" y="96" width="8" height="8" fill="#0a0b24"/>
<rect x="16" y="96" width="8" height="8" fill="#0a0b24"/>
<rect x="24" y="96" width="8" height="8" fill="#0a0b24"/>
<rect x="32" y="96" width="8" height="8" fill="#0a0b24"/>
<rect x="40" y="96" width="8" height="8" fill="#0a0b24"/>
<rect x="48" y="96" width="8" height="8" fill="#0a0b24"/>
<rect x="56" y="96" width="8" height="8" fill="#0a0b24"/>
<rect x="0" y="104" width="8" height="8" fill="#0a0b24"/>
<rect x="8" y="104" width="8" height="8" fill="#0a0b24"/>
<rect x="16" y="104" width="8" height="8" fill="#050618"/>
<rect x="24" y="104" width="8" height="8" fill="#0a0b24"/>
<rect x="32" y="104" width="8" height="8" fill="#0a0b24"/>
<rect x="40" y="104" width="8" height="8" fill="#0a0b24"/>
<rect x="48" y="104" width="8" height="8" fill="#050618"/>
<rect x="56" y="104" width="8" height="8" fill="#0a0b24"/>
<rect x="0" y="112" width="8" height="8" fill="#0a0b24"/>
<rect x="8" y="112" width="8" height="8" fill="#0a0b24"/>
<rect x="16" y="112" width="8" height="8" fill="#0a0b24"/>
<rect x="24" y="112" width="8" height="8" fill="#0a0b24"/>
<rect x="32" y="112" width="8" height="8" fill="#0a0b24"/>
<rect x="40" y="112" width="8" height="8" fill="#0a0b24"/>
<rect x="48" y="112" width="8" height="8" fill="#0a0b24"/>
<rect x="56" y="112" width="8" height="8" fill="#0a0b24"/>
<rect x="0" y="120" width="8" height="8" fill="#050618"/>
<rect x="8" y="120" width="8" height="8" fill="#0a0b24"/>
<rect x="16" y="120" width="8" height="8" fill="#0a0b24"/>
<rect x="24" y="120" width="8" height="8" fill="#0a0b24"/>
<rect x="32" y="120" width="8" height="8" fill="#050618"/>
<rect x="40" y="120" width="8" height="8" fill="#0a0b24"/>
<rect x="48" y="120" width="8" height="8" fill="#0a0b24"/>
<rect x="56" y="120" width="8" height="8" fill="#0a0b24"/>
<rect x="0" y="128" width="8" height="8" fill="#1e0f2e"/>
<rect x="8" y="128" width="8" height="8" fill="#0a0b24"/>
<rect x="16" y="128" width="8" height="8" fill="#0a0b24"/>
<rect x="24" y="128" width="8" height="8" fill="#0a0b24"/>
<rect x="32" y="128" width="8" height="8" fill="#1e0f2e"/>
<rect x="40" y="128" width="8" height="8" fill="#0a0b24"/>
<rect x="48" y="128" width="8" height="8" fill="#0a0b24"/>
<rect x="56" y="128" width="8" height="8" fill="#0a0b24"/>
<rect x="0" y="136" width="8" height="8" fill="#0a0b24"/>
<rect x="8" y="136" width="8" height="8" fill="#0a0b24"/>
<rect x="16" y="136" width="8" height="8" fill="#0a0b24"/>
<rect x="24" y="136" width="8" height="8" fill="#0a0b24"/>
<rect x="32" y="136" width="8" height="8" fill="#0a0b24"/>
<rect x="40" y="136" width="8" height="8" fill="#0a0b24"/>
<rect x="48" y="136" width="8" height="8" fill="#0a0b24"/>
<rect x="56" y="136" width="8" height="8" fill="#0a0b24"/>
<rect x="0" y="144" width="8" height="8" fill="#0a0b24"/>
<rect x="8" y="144" width="8" height="8" fill="#0a0b24"/>
<rect x="16" y="144" width="8" height="8" fill="#1e0f2e"/>
<rect x="24" y="144" width="8" height="8" fill="#0a0b24"/>
<rect x="32" y="144" width="8" height="8" fill="#0a0b24"/>
<rect x="40" y="144" width="8" height="8" fill="#0a0b24"/>
<rect x="48" y="144" width="8" height="8" fill="#1e0f2e"/>
<rect x="56" y="144" width="8" height="8" fill="#0a0b24"/>
<rect x="0" y="152" width="8" height="8" fill="#0a0b24"/>
<rect x="8" y="152" width="8" height="8" fill="#0a0b24"/>
<rect x="16" y="152" width="8" height="8" fill="#0a0b24"/>
<rect x="24" y="152" width="8" height="8" fill="#0a0b24"/>
<rect x="32" y="152" width="8" height="8" fill="#0a0b24"/>
<rect x="40" y="152" width="8" height="8" fill="#0a0b24"/>
<rect x="48" y="152" width="8" height="8" fill="#0a0b24"/>
<rect x="56" y="152" width="8" height="8" fill="#0a0b24"/>
<rect x="0" y="160" width="8" height="8" fill="#1e0f2e"/>
<rect x="8" y="160" width="8" height="8" fill="#0a0b24"/>
<rect x="16" y="160" width="8" height="8" fill="#1e0f2e"/>
<rect x="24" y="160" width="8" height="8" fill="#0a0b24"/>
<rect x="32" y="160" width="8" height="8" fill="#1e0f2e"/>
<rect x="40" y="160" width="8" height="8" fill="#0a0b24"/>
<rect x="48" y="160" width="8" height="8" fill="#1e0f2e"/>
<rect x="56" y="160" width="8" height="8" fill="#0a0b24"/>
<rect x="0" y="168" width="8" height="8" fill="#0a0b24"/>
<rect x="8" y="168" width="8" height="8" fill="#1e0f2e"/>
<rect x="16" y="168" width="8" height="8" fill="#0a0b24"/>
<rect x="24" y="168" width="8" height="8" fill="#0a0b24"/>
<rect x="32" y="168" width="8" height="8" fill="#0a0b24"/>
<rect x="40" y="168" width="8" height="8" fill="#1e0f2e"/>
<rect x="48" y="168" width="8" height="8" fill="#0a0b24"/>
<rect x="56" y="168" width="8" height="8" fill="#0a0b24"/>
<rect x="0" y="176" width="8" height="8" fill="#1e0f2e"/>
<rect x="8" y="176" width="8" height="8" fill="#0a0b24"/>
<rect x="16" y="176" width="8" height="8" fill="#1e0f2e"/>
<rect x="24" y="176" width="8" height="8" fill="#0a0b24"/>
<rect x="32" y="176" width="8" height="8" fill="#1e0f2e"/>
<rect x="40" y="176" width="8" height="8" fill="#0a0b24"/>
<rect x="48" y="176" width="8" height="8" fill="#1e0f2e"/>
<rect x="56" y="176" width="8" height="8" fill="#0a0b24"/>
<rect x="0" y="184" width="8" height="8" fill="#0a0b24"/>
<rect x="8" y="184" width="8" height="8" fill="#1e0f2e"/>
<rect x="16" y="184" width="8" height="8" fill="#0a0b24"/>
<rect x="24" y="184" width="8" height="8" fill="#1e0f2e"/>
<rect x="32" y="184" width="8" height="8" fill="#0a0b24"/>
<rect x="40" y="184" width="8" height="8" fill="#1e0f2e"/>
<rect x="48" y="184" width="8" height="8" fill="#0a0b24"/>
<rect x="56" y="184" width="8" height="8" fill="#1e0f2e"/>
<rect x="0" y="192" width="8" height="8" fill="#1e0f2e"/>
<rect x="8" y="192" width="8" height="8" fill="#1e0f2e"/>
<rect x="16" y="192" width="8" height="8" fill="#1e0f2e"/>
<rect x="24" y="192" width="8" height="8" fill="#0a0b24"/>
<rect x="32" y="192" width="8" height="8" fill="#1e0f2e"/>
<rect x="40" y="192" width="8" height="8" fill="#1e0f2e"/>
<rect x="48" y="192" width="8" height="8" fill="#1e0f2e"/>
<rect x="56" y="192" width="8" height="8" fill="#0a0b24"/>
<rect x="0" y="200" width="8" height="8" fill="#0a0b24"/>
<rect x="8" y="200" width="8" height="8" fill="#1e0f2e"/>
<rect x="16" y="200" width="8" height="8" fill="#0a0b24"/>
<rect x="24" y="200" width="8" height="8" fill="#1e0f2e"/>
<rect x="32" y="200" width="8" height="8" fill="#0a0b24"/>
<rect x="40" y="200" width="8" height="8" fill="#1e0f2e"/>
<rect x="48" y="200" width="8" height="8" fill="#0a0b24"/>
<rect x="56" y="200" width="8" height="8" fill="#1e0f2e"/>
<rect x="0" y="208" width="8" height="8" fill="#1e0f2e"/>
<rect x="8" y="208" width="8" height="8" fill="#0a0b24"/>
<rect x="16" y="208" width="8" height="8" fill="#1e0f2e"/>
<rect x="24" y="208" width="8" height="8" fill="#1e0f2e"/>
<rect x="32" y="208" width="8" height="8" fill="#1e0f2e"/>
<rect x="40" y="208" width="8" height="8" fill="#0a0b24"/>
<rect x="48" y="208" width="8" height="8" fill="#1e0f2e"/>
<rect x="56" y="208" width="8" height="8" fill="#1e0f2e"/>
<rect x="0" y="216" width="8" height="8" fill="#0a0b24"/>
<rect x="8" y="216" width="8" height="8" fill="#1e0f2e"/>
<rect x="16" y="216" width="8" height="8" fill="#0a0b24"/>
<rect x="24" y="216" width="8" height="8" fill="#1e0f2e"/>
<rect x="32" y="216" width="8" height="8" fill="#0a0b24"/>
<rect x="40" y="216" width="8" height="8" fill="#1e0f2e"/>
<rect x="48" y="216" width="8" height="8" fill="#0a0b24"/>
<rect x="56" y="216" width="8" height="8" fill="#1e0f2e"/>
<rect x="0" y="224" width="8" height="8" fill="#1e0f2e"/>
<rect x="8" y="224" width="8" height="8" fill="#1e0f2e"/>
<rect x="16" y="224" width="8" height="8" fill="#1e0f2e"/>
<rect x="24" y="224" width="8" height="8" fill="#1e0f2e"/>
<rect x="32" y="224" width="8" height="8" fill="#1e0f2e"/>
<rect x="40" y="224" width="8" height="8" fill="#1e0f2e"/>
<rect x="48" y="224" width="8" height="8" fill="#1e0f2e"/>
<rect x="56" y="224" width="8" height="8" fill="#1e0f2e"/>
<rect x="0" y="232" width="8" height="8" fill="#1e0f2e"/>
<rect x="8" y="232" width="8" height="8" fill="#1e0f2e"/>
<rect x="16" y="232" width="8" height="8" fill="#0a0b24"/>
<rect x="24" y="232" width="8" height="8" fill="#1e0f2e"/>
<rect x="32" y="232" width="8" height="8" fill="#1e0f2e"/>
<rect x="40" y="232" width="8" height="8" fill="#1e0f2e"/>
<rect x="48" y="232" width="8" height="8" fill="#0a0b24"/>
<rect x="56" y="232" width="8" height="8" fill="#1e0f2e"/>
<rect x="0" y="240" width="8" height="8" fill="#1e0f2e"/>
<rect x="8" y="240" width="8" height="8" fill="#1e0f2e"/>
<rect x="16" y="240" width="8" height="8" fill="#1e0f2e"/>
<rect x="24" y="240" width="8" height="8" fill="#1e0f2e"/>
<rect x="32" y="240" width="8" height="8" fill="#1e0f2e"/>
<rect x="40" y="240" width="8" height="8" fill="#1e0f2e"/>
<rect x="48" y="240" width="8" height="8" fill="#1e0f2e"/>
<rect x="56" y="240" width="8" height="8" fill="#1e0f2e"/>
<rect x="0" y="248" width="8" height="8" fill="#1e0f2e"/>
<rect x="8" y="248" width="8" height="8" fill="#1e0f2e"/>
<rect x="16" y="248" width="8" height="8" fill="#1e0f2e"/>
<rect x="24" y="248" width="8" height="8" fill="#1e0f2e"/>
<rect x="32" y="248" width="8" height="8" fill="#1e0f2e"/>
<rect x="40" y="248" width="8" height="8" fill="#1e0f2e"/>
<rect x="48" y="248" width="8" height="8" fill="#1e0f2e"/>
<rect x="56" y="248" width="8" height="8" fill="#1e0f2e"/>
</svg>